<svg width="100" height="44" viewBox="0 0 100 44" fill="none" xmlns="http://www.w3.org/2000/svg">
<path fill-rule="evenodd" clip-rule="evenodd" d="M2.4646 28.8461L0 22L2.4646 15.1539L0 11L2.55807 0H97.4419L100 11L97.5354 15.1539L100 22L97.5354 28.8461L100 33L97.4419 44H2.55807L0 33L2.4646 28.8461ZM3.12607 27.7312L6.52655 22L3.12607 16.2688L1.06283 22L3.12607 27.7312ZM96.6572 31.2855L97.87 33.3295L95.8537 42H4.14634L2.13001 33.3296L3.34278 31.2855L4.5 34.5L6 41H94L95.5 34.5L96.6572 31.2855ZM95.9957 30.1706L94.539 34.2172L93.2045 40H6.79551L5.46102 34.2172L4.00426 30.1706L8.85209 22L4.00426 13.8294L5.46102 9.78279L6.79551 4H93.2045L94.539 9.78279L95.9957 13.8294L91.1479 22L95.9957 30.1706ZM96.8739 27.7312L98.9372 22L96.8739 16.2688L93.4734 22L96.8739 27.7312ZM96.6572 12.7145L97.87 10.6705L95.8537 2H4.14634L2.13001 10.6704L3.34278 12.7145L4.5 9.5L6 3H94L95.5 9.5L96.6572 12.7145Z" fill="url(#paint0_linear_14_192)"/>
<defs>
<linearGradient id="paint0_linear_14_192" x1="0" y1="0" x2="91.0737" y2="58.0133" gradientUnits="userSpaceOnUse">
<stop stop-color="#FFF9BE"/>
<stop offset="1" stop-color="#CFC566"/>
</linearGradient>
</defs>
</svg>
